# xmcd CD database file generated by libcdaudio 0.99.1
# 
# Track frame offsets:
#       150
#       4505
#       16642
#       36474
#       52968
#       74610
#       100963
#       104968
#       122350
#       143205
#       147675
#       162588
#       181425
#       194775
#       212957
#       231024
# 
# Disc length: 3203 seconds
# 
# Revision: 1
# Processed by: cddbd v1.4PL0 Copyright (c) Steve Scherf et al.
# Submitted via: libcdaudio 0.99.1
# 
DISCID=f50c8110
DTITLE=Heavy Lounging - Heavy Lounging
DYEAR=1900
DGENRE=
TTITLE0=1
TTITLE1=2
TTITLE2=3
TTITLE3=4
TTITLE4=5
TTITLE5=6
TTITLE6=7
TTITLE7=8
TTITLE8=9
TTITLE9=10
TTITLE10=11
TTITLE11=12
TTITLE12=13
TTITLE13=14
TTITLE14=15
TTITLE15=16
EXTD=
EXTT0=
EXTT1=
EXTT2=
EXTT3=
EXTT4=
EXTT5=
EXTT6=
EXTT7=
EXTT8=
EXTT9=
EXTT10=
EXTT11=
EXTT12=
EXTT13=
EXTT14=
EXTT15=
PLAYORDER=
